<svg width="191" height="51" viewBox="0 0 191 51" fill="none" xmlns="http://www.w3.org/2000/svg">
<path d="M6.74625 50.14C2.49958 50.14 0.37625 49.6733 0.37625 48.74V3.38C0.37625 1.79333 1.09958 0.999997 2.54625 0.999997H14.8663C21.7729 0.999997 26.7429 2.42333 29.7763 5.27C32.8563 8.11666 34.3963 12.2467 34.3963 17.66C34.3963 22.14 32.9496 26.2467 30.0563 29.98C28.6096 31.8467 26.4863 33.34 23.6863 34.46C20.8863 35.58 17.6196 36.14 13.8863 36.14V48.67C13.8863 49.23 12.9996 49.6267 11.2263 49.86C9.49958 50.0467 8.00625 50.14 6.74625 50.14ZM13.8863 13.18V24.24H14.7963C16.4296 24.24 17.8063 23.7267 18.9263 22.7C20.0463 21.6733 20.6063 20.2267 20.6063 18.36C20.6063 16.4933 20.2096 15.1633 19.4163 14.37C18.6696 13.5767 17.3163 13.18 15.3563 13.18H13.8863ZM39.8781 15.42C39.8781 14.9067 41.8848 14.65 45.8981 14.65C49.9115 14.65 51.9181 14.9067 51.9181 15.42V35.86C51.9181 38.1933 52.6648 39.36 54.1581 39.36C55.2781 39.36 56.5381 38.87 57.9381 37.89V15.42C57.9381 14.9533 59.9215 14.72 63.8881 14.72C67.8548 14.72 69.8381 14.9533 69.8381 15.42V38.38H71.6581C73.2448 38.38 74.0381 39.8967 74.0381 42.93C74.0381 44.47 73.7115 46.0333 73.0581 47.62C72.1248 49.6733 70.8648 50.7 69.2781 50.7C66.1515 50.7 63.8415 49.4167 62.3481 46.85L62.2781 46.92C59.4315 49.44 56.3748 50.7 53.1081 50.7C48.5815 50.7 45.2448 49.58 43.0981 47.34C40.9515 45.0533 39.8781 41.2967 39.8781 36.07V15.42ZM78.1643 26.2C77.8376 26.2 77.6743 25.1967 77.6743 23.19C77.6743 17.73 78.1176 15 79.0043 15H101.334C101.661 15 102.384 16.0267 103.504 18.08C104.624 20.1333 105.184 21.3 105.184 21.58C105.184 21.8133 105.161 21.9533 105.114 22L91.5343 39.08L103.714 38.24C104.461 38.24 104.834 39.8967 104.834 43.21C104.834 44.47 104.718 45.9167 104.484 47.55C104.251 49.1833 103.854 50 103.294 50H80.8943C80.1943 50 79.3543 48.8333 78.3743 46.5C77.3943 44.1667 76.9043 42.7667 76.9043 42.3C76.9043 41.7867 76.951 41.4833 77.0443 41.39L90.4143 25.78L78.1643 26.2ZM109.951 26.2C109.625 26.2 109.461 25.1967 109.461 23.19C109.461 17.73 109.905 15 110.791 15H133.121C133.448 15 134.171 16.0267 135.291 18.08C136.411 20.1333 136.971 21.3 136.971 21.58C136.971 21.8133 136.948 21.9533 136.901 22L123.321 39.08L135.501 38.24C136.248 38.24 136.621 39.8967 136.621 43.21C136.621 44.47 136.505 45.9167 136.271 47.55C136.038 49.1833 135.641 50 135.081 50H112.681C111.981 50 111.141 48.8333 110.161 46.5C109.181 44.1667 108.691 42.7667 108.691 42.3C108.691 41.7867 108.738 41.4833 108.831 41.39L122.201 25.78L109.951 26.2ZM154.619 49.44C154.619 49.86 152.239 50.07 147.479 50.07C143.745 50.0233 141.879 49.8367 141.879 49.51V1.84C141.879 1.14 144.142 0.789999 148.669 0.789999C152.635 0.929998 154.619 1.16333 154.619 1.49V49.44ZM187.411 48.11C184.471 49.8367 180.691 50.7 176.071 50.7C171.451 50.7 167.554 49.1367 164.381 46.01C161.207 42.8367 159.621 38.4733 159.621 32.92C159.621 27.32 161.137 22.8167 164.171 19.41C167.251 16.0033 171.124 14.3 175.791 14.3C180.457 14.3 184.051 15.49 186.571 17.87C189.137 20.25 190.421 23.1433 190.421 26.55C190.421 34.11 186.081 37.89 177.401 37.89H172.571C172.571 39.29 172.944 40.27 173.691 40.83C174.484 41.3433 175.627 41.6 177.121 41.6C180.387 41.6 183.491 40.8533 186.431 39.36C186.477 39.3133 186.687 39.64 187.061 40.34C188.181 42.3467 188.741 44.05 188.741 45.45C188.741 46.8033 188.297 47.69 187.411 48.11ZM178.661 27.88C178.661 25.92 177.704 24.94 175.791 24.94C174.904 24.94 174.134 25.22 173.481 25.78C172.874 26.2933 172.571 27.0633 172.571 28.09V30.26H176.351C177.891 30.26 178.661 29.4667 178.661 27.88Z" fill="white"/>
</svg>
